<mxfile host="app.diagrams.net" modified="2020-10-14T23:58:14.475Z" agent="5.0 (Windows NT 10.0; Win64; x64) AppleWebKit/537.36 (KHTML, like Gecko) Chrome/86.0.4240.75 Safari/537.36 Edg/86.0.622.38" etag="DVWmm7zzCgmQjCNSPYOZ" version="13.7.4" type="github">
  <diagram id="BlF723xyJD15_1KHVnsj" name="FrontEnd">
    <mxGraphModel dx="2370" dy="1387" grid="0" gridSize="10" guides="1" tooltips="1" connect="1" arrows="1" fold="1" page="1" pageScale="1" pageWidth="1200" pageHeight="1920" background="#F1FAEE" math="0" shadow="0">
      <root>
        <mxCell id="0" />
        <mxCell id="1" parent="0" />
        <mxCell id="zEXeOm51Jv99EQKXZ2yy-7" style="edgeStyle=orthogonalEdgeStyle;curved=0;rounded=1;sketch=1;orthogonalLoop=1;jettySize=auto;html=1;entryX=0;entryY=0.5;entryDx=0;entryDy=0;strokeColor=#457B9D;fillColor=#A8DADC;fontSize=24;fontColor=#1D3557;" edge="1" parent="1" source="zEXeOm51Jv99EQKXZ2yy-4" target="zEXeOm51Jv99EQKXZ2yy-5">
          <mxGeometry relative="1" as="geometry" />
        </mxCell>
        <mxCell id="zEXeOm51Jv99EQKXZ2yy-9" value="" style="edgeStyle=orthogonalEdgeStyle;curved=0;rounded=1;sketch=1;orthogonalLoop=1;jettySize=auto;html=1;strokeColor=#457B9D;fillColor=#A8DADC;fontSize=24;fontColor=#1D3557;" edge="1" parent="1" source="zEXeOm51Jv99EQKXZ2yy-4" target="zEXeOm51Jv99EQKXZ2yy-8">
          <mxGeometry relative="1" as="geometry" />
        </mxCell>
        <mxCell id="zEXeOm51Jv99EQKXZ2yy-4" value="Basics" style="rounded=0;whiteSpace=wrap;html=1;sketch=1;strokeColor=#457B9D;fillColor=#A8DADC;fontSize=24;fontColor=#1D3557;" vertex="1" parent="1">
          <mxGeometry x="518" y="103" width="120" height="60" as="geometry" />
        </mxCell>
        <mxCell id="zEXeOm51Jv99EQKXZ2yy-5" value="HTML / CSS / JS" style="rounded=1;whiteSpace=wrap;html=1;sketch=1;strokeColor=#457B9D;fillColor=#A8DADC;fontSize=24;fontColor=#1D3557;" vertex="1" parent="1">
          <mxGeometry x="830" y="215" width="247" height="52" as="geometry" />
        </mxCell>
        <mxCell id="zEXeOm51Jv99EQKXZ2yy-13" style="edgeStyle=orthogonalEdgeStyle;curved=0;rounded=1;sketch=1;orthogonalLoop=1;jettySize=auto;html=1;strokeColor=#457B9D;fillColor=#A8DADC;fontSize=24;fontColor=#1D3557;entryX=0;entryY=0.5;entryDx=0;entryDy=0;" edge="1" parent="1" source="zEXeOm51Jv99EQKXZ2yy-8" target="zEXeOm51Jv99EQKXZ2yy-15">
          <mxGeometry relative="1" as="geometry">
            <mxPoint x="846" y="363" as="targetPoint" />
          </mxGeometry>
        </mxCell>
        <mxCell id="zEXeOm51Jv99EQKXZ2yy-17" style="edgeStyle=orthogonalEdgeStyle;curved=0;rounded=1;sketch=1;orthogonalLoop=1;jettySize=auto;html=1;exitX=1;exitY=0.5;exitDx=0;exitDy=0;entryX=0;entryY=0.5;entryDx=0;entryDy=0;strokeColor=#457B9D;fillColor=#A8DADC;fontSize=24;fontColor=#1D3557;" edge="1" parent="1" source="zEXeOm51Jv99EQKXZ2yy-8" target="zEXeOm51Jv99EQKXZ2yy-16">
          <mxGeometry relative="1" as="geometry" />
        </mxCell>
        <mxCell id="zEXeOm51Jv99EQKXZ2yy-19" style="edgeStyle=orthogonalEdgeStyle;curved=0;rounded=1;sketch=1;orthogonalLoop=1;jettySize=auto;html=1;strokeColor=#457B9D;fillColor=#A8DADC;fontSize=24;fontColor=#1D3557;" edge="1" parent="1" source="zEXeOm51Jv99EQKXZ2yy-8" target="zEXeOm51Jv99EQKXZ2yy-18">
          <mxGeometry relative="1" as="geometry" />
        </mxCell>
        <mxCell id="zEXeOm51Jv99EQKXZ2yy-8" value="Package Managers" style="rounded=0;whiteSpace=wrap;html=1;sketch=1;strokeColor=#457B9D;fillColor=#A8DADC;fontSize=24;fontColor=#1D3557;" vertex="1" parent="1">
          <mxGeometry x="504" y="267" width="148" height="80" as="geometry" />
        </mxCell>
        <mxCell id="zEXeOm51Jv99EQKXZ2yy-15" value="yarn" style="rounded=1;whiteSpace=wrap;html=1;sketch=1;strokeColor=#457B9D;fillColor=#A8DADC;fontSize=24;fontColor=#1D3557;" vertex="1" parent="1">
          <mxGeometry x="830" y="332" width="123" height="52" as="geometry" />
        </mxCell>
        <mxCell id="zEXeOm51Jv99EQKXZ2yy-16" value="npm" style="rounded=1;whiteSpace=wrap;html=1;sketch=1;strokeColor=#457B9D;fillColor=#A8DADC;fontSize=24;fontColor=#1D3557;" vertex="1" parent="1">
          <mxGeometry x="830" y="402" width="123" height="52" as="geometry" />
        </mxCell>
        <mxCell id="zEXeOm51Jv99EQKXZ2yy-24" style="edgeStyle=orthogonalEdgeStyle;curved=0;rounded=1;sketch=1;orthogonalLoop=1;jettySize=auto;html=1;entryX=1;entryY=0.5;entryDx=0;entryDy=0;strokeColor=#457B9D;fillColor=#A8DADC;fontSize=24;fontColor=#1D3557;" edge="1" parent="1" source="zEXeOm51Jv99EQKXZ2yy-18" target="zEXeOm51Jv99EQKXZ2yy-20">
          <mxGeometry relative="1" as="geometry" />
        </mxCell>
        <mxCell id="zEXeOm51Jv99EQKXZ2yy-25" style="edgeStyle=orthogonalEdgeStyle;curved=0;rounded=1;sketch=1;orthogonalLoop=1;jettySize=auto;html=1;exitX=0;exitY=0.5;exitDx=0;exitDy=0;entryX=1;entryY=0.5;entryDx=0;entryDy=0;strokeColor=#457B9D;fillColor=#A8DADC;fontSize=24;fontColor=#1D3557;" edge="1" parent="1" source="zEXeOm51Jv99EQKXZ2yy-18" target="zEXeOm51Jv99EQKXZ2yy-21">
          <mxGeometry relative="1" as="geometry" />
        </mxCell>
        <mxCell id="zEXeOm51Jv99EQKXZ2yy-26" style="edgeStyle=orthogonalEdgeStyle;curved=0;rounded=1;sketch=1;orthogonalLoop=1;jettySize=auto;html=1;entryX=1;entryY=0.5;entryDx=0;entryDy=0;strokeColor=#457B9D;fillColor=#A8DADC;fontSize=24;fontColor=#1D3557;" edge="1" parent="1" source="zEXeOm51Jv99EQKXZ2yy-18" target="zEXeOm51Jv99EQKXZ2yy-22">
          <mxGeometry relative="1" as="geometry" />
        </mxCell>
        <mxCell id="zEXeOm51Jv99EQKXZ2yy-27" style="edgeStyle=orthogonalEdgeStyle;curved=0;rounded=1;sketch=1;orthogonalLoop=1;jettySize=auto;html=1;entryX=1;entryY=0.5;entryDx=0;entryDy=0;strokeColor=#457B9D;fillColor=#A8DADC;fontSize=24;fontColor=#1D3557;" edge="1" parent="1" source="zEXeOm51Jv99EQKXZ2yy-18" target="zEXeOm51Jv99EQKXZ2yy-23">
          <mxGeometry relative="1" as="geometry" />
        </mxCell>
        <mxCell id="zEXeOm51Jv99EQKXZ2yy-30" style="edgeStyle=orthogonalEdgeStyle;curved=0;rounded=1;sketch=1;orthogonalLoop=1;jettySize=auto;html=1;entryX=0.5;entryY=0;entryDx=0;entryDy=0;strokeColor=#457B9D;fillColor=#A8DADC;fontSize=24;fontColor=#1D3557;" edge="1" parent="1" source="zEXeOm51Jv99EQKXZ2yy-18" target="zEXeOm51Jv99EQKXZ2yy-28">
          <mxGeometry relative="1" as="geometry" />
        </mxCell>
        <mxCell id="zEXeOm51Jv99EQKXZ2yy-18" value="CSS Architecture" style="rounded=0;whiteSpace=wrap;html=1;sketch=1;strokeColor=#457B9D;fillColor=#A8DADC;fontSize=24;fontColor=#1D3557;" vertex="1" parent="1">
          <mxGeometry x="504" y="442" width="148" height="80" as="geometry" />
        </mxCell>
        <mxCell id="zEXeOm51Jv99EQKXZ2yy-20" value="OOCSS" style="rounded=1;whiteSpace=wrap;html=1;sketch=1;strokeColor=#457B9D;fillColor=#A8DADC;fontSize=24;fontColor=#1D3557;" vertex="1" parent="1">
          <mxGeometry x="162" y="347" width="123" height="52" as="geometry" />
        </mxCell>
        <mxCell id="zEXeOm51Jv99EQKXZ2yy-21" value="BEM" style="rounded=1;whiteSpace=wrap;html=1;sketch=1;strokeColor=#457B9D;fillColor=#A8DADC;fontSize=24;fontColor=#1D3557;" vertex="1" parent="1">
          <mxGeometry x="162" y="418" width="123" height="52" as="geometry" />
        </mxCell>
        <mxCell id="zEXeOm51Jv99EQKXZ2yy-22" value="AtomiCSS" style="rounded=1;whiteSpace=wrap;html=1;sketch=1;strokeColor=#457B9D;fillColor=#A8DADC;fontSize=24;fontColor=#1D3557;" vertex="1" parent="1">
          <mxGeometry x="162" y="489" width="123" height="52" as="geometry" />
        </mxCell>
        <mxCell id="zEXeOm51Jv99EQKXZ2yy-23" value="A-BEM" style="rounded=1;whiteSpace=wrap;html=1;sketch=1;strokeColor=#457B9D;fillColor=#A8DADC;fontSize=24;fontColor=#1D3557;" vertex="1" parent="1">
          <mxGeometry x="162" y="560" width="123" height="52" as="geometry" />
        </mxCell>
        <mxCell id="zEXeOm51Jv99EQKXZ2yy-34" style="edgeStyle=orthogonalEdgeStyle;curved=0;rounded=1;sketch=1;orthogonalLoop=1;jettySize=auto;html=1;entryX=0;entryY=0.5;entryDx=0;entryDy=0;strokeColor=#457B9D;fillColor=#A8DADC;fontSize=24;fontColor=#1D3557;" edge="1" parent="1" source="zEXeOm51Jv99EQKXZ2yy-28" target="zEXeOm51Jv99EQKXZ2yy-31">
          <mxGeometry relative="1" as="geometry" />
        </mxCell>
        <mxCell id="zEXeOm51Jv99EQKXZ2yy-35" style="edgeStyle=orthogonalEdgeStyle;curved=0;rounded=1;sketch=1;orthogonalLoop=1;jettySize=auto;html=1;entryX=0;entryY=0.5;entryDx=0;entryDy=0;strokeColor=#457B9D;fillColor=#A8DADC;fontSize=24;fontColor=#1D3557;" edge="1" parent="1" source="zEXeOm51Jv99EQKXZ2yy-28" target="zEXeOm51Jv99EQKXZ2yy-32">
          <mxGeometry relative="1" as="geometry" />
        </mxCell>
        <mxCell id="zEXeOm51Jv99EQKXZ2yy-36" style="edgeStyle=orthogonalEdgeStyle;curved=0;rounded=1;sketch=1;orthogonalLoop=1;jettySize=auto;html=1;entryX=0;entryY=0.5;entryDx=0;entryDy=0;strokeColor=#457B9D;fillColor=#A8DADC;fontSize=24;fontColor=#1D3557;" edge="1" parent="1" source="zEXeOm51Jv99EQKXZ2yy-28" target="zEXeOm51Jv99EQKXZ2yy-33">
          <mxGeometry relative="1" as="geometry" />
        </mxCell>
        <mxCell id="zEXeOm51Jv99EQKXZ2yy-38" value="" style="edgeStyle=orthogonalEdgeStyle;curved=0;rounded=1;sketch=1;orthogonalLoop=1;jettySize=auto;html=1;strokeColor=#457B9D;fillColor=#A8DADC;fontSize=24;fontColor=#1D3557;" edge="1" parent="1" source="zEXeOm51Jv99EQKXZ2yy-28" target="zEXeOm51Jv99EQKXZ2yy-37">
          <mxGeometry relative="1" as="geometry" />
        </mxCell>
        <mxCell id="zEXeOm51Jv99EQKXZ2yy-28" value="CSS Preprocessors" style="rounded=0;whiteSpace=wrap;html=1;sketch=1;strokeColor=#457B9D;fillColor=#A8DADC;fontSize=24;fontColor=#1D3557;" vertex="1" parent="1">
          <mxGeometry x="476" y="590" width="204" height="80" as="geometry" />
        </mxCell>
        <mxCell id="zEXeOm51Jv99EQKXZ2yy-31" value="Sass" style="rounded=1;whiteSpace=wrap;html=1;sketch=1;strokeColor=#457B9D;fillColor=#A8DADC;fontSize=24;fontColor=#1D3557;" vertex="1" parent="1">
          <mxGeometry x="805" y="548" width="123" height="52" as="geometry" />
        </mxCell>
        <mxCell id="zEXeOm51Jv99EQKXZ2yy-32" value="PostCSS" style="rounded=1;whiteSpace=wrap;html=1;sketch=1;strokeColor=#457B9D;fillColor=#A8DADC;fontSize=24;fontColor=#1D3557;" vertex="1" parent="1">
          <mxGeometry x="805" y="618" width="123" height="52" as="geometry" />
        </mxCell>
        <mxCell id="zEXeOm51Jv99EQKXZ2yy-33" value="Stylus" style="rounded=1;whiteSpace=wrap;html=1;sketch=1;strokeColor=#457B9D;fillColor=#A8DADC;fontSize=24;fontColor=#1D3557;" vertex="1" parent="1">
          <mxGeometry x="805" y="688" width="123" height="52" as="geometry" />
        </mxCell>
        <mxCell id="zEXeOm51Jv99EQKXZ2yy-45" style="edgeStyle=orthogonalEdgeStyle;curved=0;rounded=1;sketch=1;orthogonalLoop=1;jettySize=auto;html=1;entryX=1;entryY=0.5;entryDx=0;entryDy=0;strokeColor=#457B9D;fillColor=#A8DADC;fontSize=24;fontColor=#1D3557;" edge="1" parent="1" source="zEXeOm51Jv99EQKXZ2yy-37" target="zEXeOm51Jv99EQKXZ2yy-42">
          <mxGeometry relative="1" as="geometry" />
        </mxCell>
        <mxCell id="zEXeOm51Jv99EQKXZ2yy-46" style="edgeStyle=orthogonalEdgeStyle;curved=0;rounded=1;sketch=1;orthogonalLoop=1;jettySize=auto;html=1;entryX=1;entryY=0.5;entryDx=0;entryDy=0;strokeColor=#457B9D;fillColor=#A8DADC;fontSize=24;fontColor=#1D3557;" edge="1" parent="1" source="zEXeOm51Jv99EQKXZ2yy-37" target="zEXeOm51Jv99EQKXZ2yy-43">
          <mxGeometry relative="1" as="geometry" />
        </mxCell>
        <mxCell id="zEXeOm51Jv99EQKXZ2yy-47" style="edgeStyle=orthogonalEdgeStyle;curved=0;rounded=1;sketch=1;orthogonalLoop=1;jettySize=auto;html=1;entryX=1;entryY=0.5;entryDx=0;entryDy=0;strokeColor=#457B9D;fillColor=#A8DADC;fontSize=24;fontColor=#1D3557;" edge="1" parent="1" source="zEXeOm51Jv99EQKXZ2yy-37" target="zEXeOm51Jv99EQKXZ2yy-44">
          <mxGeometry relative="1" as="geometry" />
        </mxCell>
        <mxCell id="zEXeOm51Jv99EQKXZ2yy-49" value="" style="edgeStyle=orthogonalEdgeStyle;curved=0;rounded=1;sketch=1;orthogonalLoop=1;jettySize=auto;html=1;strokeColor=#457B9D;fillColor=#A8DADC;fontSize=24;fontColor=#1D3557;" edge="1" parent="1" source="zEXeOm51Jv99EQKXZ2yy-37" target="zEXeOm51Jv99EQKXZ2yy-48">
          <mxGeometry relative="1" as="geometry" />
        </mxCell>
        <mxCell id="zEXeOm51Jv99EQKXZ2yy-37" value="Builders" style="rounded=0;whiteSpace=wrap;html=1;sketch=1;strokeColor=#457B9D;fillColor=#A8DADC;fontSize=24;fontColor=#1D3557;" vertex="1" parent="1">
          <mxGeometry x="476" y="750" width="204" height="80" as="geometry" />
        </mxCell>
        <mxCell id="zEXeOm51Jv99EQKXZ2yy-42" value="Gulp" style="rounded=1;whiteSpace=wrap;html=1;sketch=1;strokeColor=#457B9D;fillColor=#A8DADC;fontSize=24;fontColor=#1D3557;" vertex="1" parent="1">
          <mxGeometry x="243" y="694" width="123" height="52" as="geometry" />
        </mxCell>
        <mxCell id="zEXeOm51Jv99EQKXZ2yy-43" value="npm scripts" style="rounded=1;whiteSpace=wrap;html=1;sketch=1;strokeColor=#457B9D;fillColor=#A8DADC;fontSize=24;fontColor=#1D3557;" vertex="1" parent="1">
          <mxGeometry x="220" y="764" width="146" height="52" as="geometry" />
        </mxCell>
        <mxCell id="zEXeOm51Jv99EQKXZ2yy-44" value="Webpack" style="rounded=1;whiteSpace=wrap;html=1;sketch=1;strokeColor=#457B9D;fillColor=#A8DADC;fontSize=24;fontColor=#1D3557;" vertex="1" parent="1">
          <mxGeometry x="243" y="834" width="123" height="52" as="geometry" />
        </mxCell>
        <mxCell id="zEXeOm51Jv99EQKXZ2yy-54" style="edgeStyle=orthogonalEdgeStyle;curved=0;rounded=1;sketch=1;orthogonalLoop=1;jettySize=auto;html=1;entryX=0;entryY=0.5;entryDx=0;entryDy=0;strokeColor=#457B9D;fillColor=#A8DADC;fontSize=24;fontColor=#1D3557;" edge="1" parent="1" source="zEXeOm51Jv99EQKXZ2yy-48" target="zEXeOm51Jv99EQKXZ2yy-50">
          <mxGeometry relative="1" as="geometry" />
        </mxCell>
        <mxCell id="zEXeOm51Jv99EQKXZ2yy-55" style="edgeStyle=orthogonalEdgeStyle;curved=0;rounded=1;sketch=1;orthogonalLoop=1;jettySize=auto;html=1;entryX=0;entryY=0.5;entryDx=0;entryDy=0;strokeColor=#457B9D;fillColor=#A8DADC;fontSize=24;fontColor=#1D3557;" edge="1" parent="1" source="zEXeOm51Jv99EQKXZ2yy-48" target="zEXeOm51Jv99EQKXZ2yy-51">
          <mxGeometry relative="1" as="geometry" />
        </mxCell>
        <mxCell id="zEXeOm51Jv99EQKXZ2yy-60" style="edgeStyle=orthogonalEdgeStyle;curved=0;rounded=1;sketch=1;orthogonalLoop=1;jettySize=auto;html=1;entryX=1;entryY=0.5;entryDx=0;entryDy=0;strokeColor=#457B9D;fillColor=#A8DADC;fontSize=24;fontColor=#1D3557;" edge="1" parent="1" source="zEXeOm51Jv99EQKXZ2yy-48" target="zEXeOm51Jv99EQKXZ2yy-58">
          <mxGeometry relative="1" as="geometry" />
        </mxCell>
        <mxCell id="zEXeOm51Jv99EQKXZ2yy-61" style="edgeStyle=orthogonalEdgeStyle;curved=0;rounded=1;sketch=1;orthogonalLoop=1;jettySize=auto;html=1;entryX=1;entryY=0.5;entryDx=0;entryDy=0;strokeColor=#457B9D;fillColor=#A8DADC;fontSize=24;fontColor=#1D3557;" edge="1" parent="1" source="zEXeOm51Jv99EQKXZ2yy-48" target="zEXeOm51Jv99EQKXZ2yy-59">
          <mxGeometry relative="1" as="geometry" />
        </mxCell>
        <mxCell id="zEXeOm51Jv99EQKXZ2yy-65" value="" style="edgeStyle=orthogonalEdgeStyle;curved=0;rounded=1;sketch=1;orthogonalLoop=1;jettySize=auto;html=1;strokeColor=#457B9D;fillColor=#A8DADC;fontSize=24;fontColor=#1D3557;" edge="1" parent="1" source="zEXeOm51Jv99EQKXZ2yy-48" target="zEXeOm51Jv99EQKXZ2yy-64">
          <mxGeometry relative="1" as="geometry" />
        </mxCell>
        <mxCell id="zEXeOm51Jv99EQKXZ2yy-48" value="FrontEnd Frameworks" style="rounded=0;whiteSpace=wrap;html=1;sketch=1;strokeColor=#457B9D;fillColor=#A8DADC;fontSize=24;fontColor=#1D3557;" vertex="1" parent="1">
          <mxGeometry x="476" y="937" width="204" height="80" as="geometry" />
        </mxCell>
        <mxCell id="zEXeOm51Jv99EQKXZ2yy-56" style="edgeStyle=orthogonalEdgeStyle;curved=0;rounded=1;sketch=1;orthogonalLoop=1;jettySize=auto;html=1;entryX=0;entryY=0.5;entryDx=0;entryDy=0;strokeColor=#457B9D;fillColor=#A8DADC;fontSize=24;fontColor=#1D3557;" edge="1" parent="1" source="zEXeOm51Jv99EQKXZ2yy-50" target="zEXeOm51Jv99EQKXZ2yy-52">
          <mxGeometry relative="1" as="geometry" />
        </mxCell>
        <mxCell id="zEXeOm51Jv99EQKXZ2yy-50" value="React" style="rounded=1;whiteSpace=wrap;html=1;sketch=1;strokeColor=#457B9D;fillColor=#A8DADC;fontSize=24;fontColor=#1D3557;" vertex="1" parent="1">
          <mxGeometry x="792" y="913" width="123" height="52" as="geometry" />
        </mxCell>
        <mxCell id="zEXeOm51Jv99EQKXZ2yy-57" style="edgeStyle=orthogonalEdgeStyle;curved=0;rounded=1;sketch=1;orthogonalLoop=1;jettySize=auto;html=1;entryX=0;entryY=0.5;entryDx=0;entryDy=0;strokeColor=#457B9D;fillColor=#A8DADC;fontSize=24;fontColor=#1D3557;" edge="1" parent="1" source="zEXeOm51Jv99EQKXZ2yy-51" target="zEXeOm51Jv99EQKXZ2yy-53">
          <mxGeometry relative="1" as="geometry" />
        </mxCell>
        <mxCell id="zEXeOm51Jv99EQKXZ2yy-51" value="Vue" style="rounded=1;whiteSpace=wrap;html=1;sketch=1;strokeColor=#457B9D;fillColor=#A8DADC;fontSize=24;fontColor=#1D3557;" vertex="1" parent="1">
          <mxGeometry x="792" y="983" width="123" height="52" as="geometry" />
        </mxCell>
        <mxCell id="zEXeOm51Jv99EQKXZ2yy-52" value="Redux" style="rounded=1;whiteSpace=wrap;html=1;sketch=1;strokeColor=#457B9D;fillColor=#A8DADC;fontSize=24;fontColor=#1D3557;" vertex="1" parent="1">
          <mxGeometry x="949" y="913" width="123" height="52" as="geometry" />
        </mxCell>
        <mxCell id="zEXeOm51Jv99EQKXZ2yy-53" value="Vuex" style="rounded=1;whiteSpace=wrap;html=1;sketch=1;strokeColor=#457B9D;fillColor=#A8DADC;fontSize=24;fontColor=#1D3557;" vertex="1" parent="1">
          <mxGeometry x="949" y="983" width="123" height="52" as="geometry" />
        </mxCell>
        <mxCell id="zEXeOm51Jv99EQKXZ2yy-58" value="Tailwindcss" style="rounded=1;whiteSpace=wrap;html=1;sketch=1;strokeColor=#457B9D;fillColor=#A8DADC;fontSize=24;fontColor=#1D3557;" vertex="1" parent="1">
          <mxGeometry x="165" y="952" width="155" height="52" as="geometry" />
        </mxCell>
        <mxCell id="zEXeOm51Jv99EQKXZ2yy-59" value="Bootstrap" style="rounded=1;whiteSpace=wrap;html=1;sketch=1;strokeColor=#457B9D;fillColor=#A8DADC;fontSize=24;fontColor=#1D3557;" vertex="1" parent="1">
          <mxGeometry x="197" y="1028" width="123" height="52" as="geometry" />
        </mxCell>
        <mxCell id="zEXeOm51Jv99EQKXZ2yy-62" value="css" style="text;html=1;align=center;verticalAlign=middle;resizable=0;points=[];autosize=1;fontSize=24;fontColor=#1D3557;rotation=0;" vertex="1" parent="1">
          <mxGeometry x="421" y="932" width="46" height="33" as="geometry" />
        </mxCell>
        <mxCell id="zEXeOm51Jv99EQKXZ2yy-63" value="js" style="text;html=1;align=center;verticalAlign=middle;resizable=0;points=[];autosize=1;fontSize=24;fontColor=#1D3557;rotation=0;" vertex="1" parent="1">
          <mxGeometry x="690" y="932" width="27" height="33" as="geometry" />
        </mxCell>
        <mxCell id="zEXeOm51Jv99EQKXZ2yy-68" style="edgeStyle=orthogonalEdgeStyle;curved=0;rounded=1;sketch=1;orthogonalLoop=1;jettySize=auto;html=1;entryX=0;entryY=0.5;entryDx=0;entryDy=0;strokeColor=#457B9D;fillColor=#A8DADC;fontSize=24;fontColor=#1D3557;" edge="1" parent="1" source="zEXeOm51Jv99EQKXZ2yy-64" target="zEXeOm51Jv99EQKXZ2yy-66">
          <mxGeometry relative="1" as="geometry" />
        </mxCell>
        <mxCell id="zEXeOm51Jv99EQKXZ2yy-69" style="edgeStyle=orthogonalEdgeStyle;curved=0;rounded=1;sketch=1;orthogonalLoop=1;jettySize=auto;html=1;entryX=0;entryY=0.5;entryDx=0;entryDy=0;strokeColor=#457B9D;fillColor=#A8DADC;fontSize=24;fontColor=#1D3557;" edge="1" parent="1" source="zEXeOm51Jv99EQKXZ2yy-64" target="zEXeOm51Jv99EQKXZ2yy-67">
          <mxGeometry relative="1" as="geometry" />
        </mxCell>
        <mxCell id="zEXeOm51Jv99EQKXZ2yy-64" value="Testing" style="rounded=0;whiteSpace=wrap;html=1;sketch=1;strokeColor=#457B9D;fillColor=#A8DADC;fontSize=24;fontColor=#1D3557;" vertex="1" parent="1">
          <mxGeometry x="476" y="1097" width="204" height="80" as="geometry" />
        </mxCell>
        <mxCell id="zEXeOm51Jv99EQKXZ2yy-66" value="Cypress" style="rounded=1;whiteSpace=wrap;html=1;sketch=1;strokeColor=#457B9D;fillColor=#A8DADC;fontSize=24;fontColor=#1D3557;" vertex="1" parent="1">
          <mxGeometry x="792" y="1115" width="123" height="52" as="geometry" />
        </mxCell>
        <mxCell id="zEXeOm51Jv99EQKXZ2yy-67" value="Mocha/Chai" style="rounded=1;whiteSpace=wrap;html=1;sketch=1;strokeColor=#457B9D;fillColor=#A8DADC;fontSize=24;fontColor=#1D3557;" vertex="1" parent="1">
          <mxGeometry x="792" y="1185" width="161" height="52" as="geometry" />
        </mxCell>
      </root>
    </mxGraphModel>
  </diagram>
</mxfile>
